<svg xmlns="http://www.w3.org/2000/svg" xmlns:xlink="http://www.w3.org/1999/xlink" width="200" height="200" viewBox="0 0 200 200">
  <defs>
    <style>
      .cls-1 {
        fill: #181e34;
      }

      .cls-2 {
        fill: url(#linear-gradient);
      }
    </style>
    <linearGradient id="linear-gradient" x1="0.175" y1="0.303" x2="0.925" y2="0.861" gradientUnits="objectBoundingBox">
      <stop offset="0" stop-color="#c13fdb"/>
      <stop offset="1" stop-color="#225cc1"/>
    </linearGradient>
  </defs>
  <g id="imgBig" transform="translate(-89 -246)">
    <circle id="bg" class="cls-1" cx="100" cy="100" r="100" transform="translate(89 246)"/>
    <g id="ic_logo1" data-name="ic/logo1" transform="translate(143 290)">
      <path id="logo" class="cls-2" d="M95.406,49.436h-2.7c4.476-4.183,7.985-8.973,8.53-13.987.366-3.363-.376-8.288-5.989-12.663-4.925-3.841-10.427-4.632-15.492-2.226-5,2.369-9.2,7.917-12.077,15.414C64.8,28.476,60.6,22.928,55.6,20.557c-5.065-2.4-10.567-1.614-15.492,2.226-5.613,4.378-6.358,9.3-5.992,12.666.545,5.016,4.053,9.806,8.53,13.987h-2.7A18.664,18.664,0,0,0,21.31,68.078V112.55a18.664,18.664,0,0,0,18.642,18.642H95.406a18.664,18.664,0,0,0,18.642-18.642V68.078A18.664,18.664,0,0,0,95.406,49.436ZM84.18,29.886a3.2,3.2,0,0,1,1.451-.371,5.441,5.441,0,0,1,3.27,1.412c2.252,1.754,2.128,2.909,2.073,3.4-.433,3.991-7.362,10.029-15.51,15.105H74.73C76.484,39.03,80.441,31.66,84.18,29.886ZM44.387,34.331c-.055-.493-.179-1.648,2.073-3.4a5.441,5.441,0,0,1,3.27-1.412,3.208,3.208,0,0,1,1.451.371c3.739,1.775,7.7,9.145,9.453,19.55h-.74C51.749,44.358,44.818,38.322,44.387,34.331Zm51.019,86.318H39.952a8.108,8.108,0,0,1-8.1-8.1V82.6h42.49c-.693-1.593-1.547-3.451-2.543-5.408H31.856V68.078a8.108,8.108,0,0,1,8.1-8.1H57.862a72.451,72.451,0,0,0-7.11,14.2H61.68A80.277,80.277,0,0,1,67.7,64.5c7.211,8.875,11.815,22.078,11.815,22.078L88.979,82.6s-4.79-13.8-12.207-22.618H95.406a8.108,8.108,0,0,1,8.1,8.1v9.113H90.437c1.02,2.447,1.6,4.105,1.679,4.318l.379,1.09h11.01v29.951A8.109,8.109,0,0,1,95.406,120.649Z" transform="translate(-21.31 -19.192)"/>
    </g>
  </g>
</svg>
